<?xml version="1.0" standalone="no"?><!DOCTYPE svg PUBLIC "-//W3C//DTD SVG 1.1//EN" "http://www.w3.org/Graphics/SVG/1.1/DTD/svg11.dtd"><svg t="1593002621978" class="icon" viewBox="0 0 1024 1024" version="1.1" xmlns="http://www.w3.org/2000/svg" p-id="19216" xmlns:xlink="http://www.w3.org/1999/xlink" width="200" height="200"><defs><style type="text/css"></style></defs><path d="M926.189566 969.07568H97.810434c-54.171932 0-97.810434-43.638501-97.810434-97.810434V167.782513c0-54.171932 43.638501-97.810434 97.810434-97.810434h828.379132c54.171932 0 97.810434 43.638501 97.810434 97.810434v703.482733c-0.752388 54.171932-44.390889 97.810434-97.810434 97.810434zM97.810434 125.648788c-23.324026 0-42.886113 18.809699-42.886114 42.886113v703.482733c0 23.324026 18.809699 42.886113 42.886114 42.886113h828.379132c23.324026 0 42.886113-18.809699 42.886114-42.886113V167.782513c0-23.324026-18.809699-42.886113-42.886114-42.886113H97.810434z m0 0" fill="" p-id="19217"></path><path d="M51.162381 266.345334h920.92285v32.352682H51.162381v-32.352682zM381.460691 165.525349c0 15.047759-12.038207 27.838354-27.838354 27.838354-15.047759 0-27.838354-12.038207-27.838355-27.838354V28.590742c0-15.047759 12.038207-27.838354 27.838355-27.838354 15.047759 0 27.838354 12.038207 27.838354 27.838354V165.525349z m316.002939 0c0 15.047759-12.038207 27.838354-27.838354 27.838354-15.047759 0-27.838354-12.038207-27.838355-27.838354V28.590742c0-15.047759 12.038207-27.838354 27.838355-27.838354 15.047759 0 27.838354 12.038207 27.838354 27.838354V165.525349z m0 0M686.930198 528.928729h-66.962527c-23.324026 0-42.886113-18.809699-42.886113-42.886113v-66.962528c0-23.324026 18.809699-42.886113 42.886113-42.886113h66.962527c23.324026 0 42.886113 18.809699 42.886114 42.886113v66.962528c0 24.076414-19.562087 42.886113-42.886114 42.886113zM372.432035 528.928729h-66.962527c-23.324026 0-42.886113-18.809699-42.886113-42.886113v-66.962528c0-23.324026 18.809699-42.886113 42.886113-42.886113h66.962527c23.324026 0 42.886113 18.809699 42.886113 42.886113v66.962528c0 24.076414-19.562087 42.886113-42.886113 42.886113zM686.930198 826.874357h-66.962527c-23.324026 0-42.886113-18.809699-42.886113-42.886113v-66.962528c0-23.324026 18.809699-42.886113 42.886113-42.886113h66.962527c23.324026 0 42.886113 18.809699 42.886114 42.886113v66.962528c0 23.324026-19.562087 42.886113-42.886114 42.886113zM372.432035 826.874357h-66.962527c-23.324026 0-42.886113-18.809699-42.886113-42.886113v-66.962528c0-23.324026 18.809699-42.886113 42.886113-42.886113h66.962527c23.324026 0 42.886113 18.809699 42.886113 42.886113v66.962528c0 23.324026-19.562087 42.886113-42.886113 42.886113z" fill="" p-id="19218"></path></svg>