<?xml version="1.0" standalone="no"?><!DOCTYPE svg PUBLIC "-//W3C//DTD SVG 1.1//EN" "http://www.w3.org/Graphics/SVG/1.1/DTD/svg11.dtd"><svg t="1593002927614" class="icon" viewBox="0 0 1024 1024" version="1.1" xmlns="http://www.w3.org/2000/svg" p-id="23566" xmlns:xlink="http://www.w3.org/1999/xlink" width="200" height="200"><defs><style type="text/css"></style></defs><path d="M919.5 460.8c-10.1-5.9-21.2-9.4-32.5-10.6V199.1c-0.1-27.8-23.8-50.3-52.9-50.3H726.2v-30.9c0-29.7-24.1-53.8-53.8-53.8s-53.8 24.1-53.8 53.8v30.9H333.1v-31c0-29.7-24.1-53.8-53.8-53.8s-53.8 24.1-53.8 53.8v30.9H117.6c-29.2 0-52.9 22.6-52.9 50.3v646c0 27.7 23.7 50.3 52.9 50.3h505.6l-1.7 47.9c-0.2 6.1 2.9 11.8 8.2 14.9 2.6 1.5 5.4 2.2 8.3 2.2 3 0 6-0.8 8.6-2.4l101.7-62.5H834c29.2 0 52.9-22.6 52.9-50.3V679c0-0.7-0.1-1.3-0.1-2l61.8-106c22.3-38.4 9.3-87.8-29.1-110.2z m-267.9-343c0-11.5 9.3-20.8 20.8-20.8s20.8 9.3 20.8 20.8v94.9c0 11.5-9.3 20.8-20.8 20.8s-20.8-9.3-20.8-20.8v-94.9z m-393.2 0c0-11.5 9.3-20.8 20.8-20.8s20.8 9.3 20.8 20.8v94.9c0 11.5-9.3 20.8-20.8 20.8s-20.8-9.3-20.8-20.8v-94.9zM97.7 199.1c0-9.4 9.1-17.3 19.9-17.3h107.9v30.9c0 29.7 24.1 53.8 53.8 53.8 29.7 0 53.8-24.1 53.8-53.8v-30.9h285.5v31c0 29.7 24.1 53.8 53.8 53.8s53.8-24.1 53.8-53.8v-30.9h107.9c10.8 0 19.9 7.9 19.9 17.3v113.9H97.7v-114z m19.9 663.2c-10.8 0-19.9-7.9-19.9-17.3V332.9H854v120.9c-18.8 6.1-34.5 18.7-44.5 36L628.6 800c-1.4 2.3-2.1 5-2.2 7.7l-2 54.6H117.6z m537.9 51.3l3.1-84.6 69 40.3-72.1 44.3z m198.4-68.5c0 9.4-9.1 17.3-19.9 17.3h-55.3l75.2-129v111.7z m-109.7 10.7l-82.1-47.9 162.2-278.2 82.1 47.9-162.2 278.2zM920 554.3l-3.5 6-82.1-47.9 3.5-6c6.4-10.9 16.7-18.7 29-22 12.3-3.2 25.1-1.5 36 4.9 22.6 13.2 30.3 42.3 17.1 65z" fill="#ffffff" p-id="23567"></path><path d="M594.4 576.4H482.2v-89h170c5.5 0 10-4.5 10-10s-4.5-10-10-10h-170v-48.3c0-5.5-4.5-10-10-10s-10 4.5-10 10v48.3h-85.9v-48.3c0-5.5-4.5-10-10-10s-10 4.5-10 10v48.3h-85.9v-48.3c0-5.5-4.5-10-10-10s-10 4.5-10 10v48.3H192c-5.5 0-10 4.5-10 10s4.5 10 10 10h58.3v89H192c-5.5 0-10 4.5-10 10s4.5 10 10 10h58.3v89H192c-5.5 0-10 4.5-10 10s4.5 10 10 10h58.3v39.1c0 5.5 4.5 10 10 10s10-4.5 10-10v-39.1h85.9v39.1c0 5.5 4.5 10 10 10s10-4.5 10-10v-39.1h85.9v39.1c0 5.5 4.5 10 10 10s10-4.5 10-10v-39.1h54.7c5.5 0 10-4.5 10-10s-4.5-10-10-10h-54.7v-89h112.3c5.5 0 10-4.5 10-10s-4.5-10-10-10zM356.2 685.5h-85.9v-89h85.9v89z m0-109.1h-85.9v-89h85.9v89z m106 109.1h-85.9v-89h85.9v89z m0-109.1h-85.9v-89h85.9v89z" fill="#ffffff" p-id="23568"></path></svg>