<?xml version="1.0" standalone="no"?><!DOCTYPE svg PUBLIC "-//W3C//DTD SVG 1.1//EN" "http://www.w3.org/Graphics/SVG/1.1/DTD/svg11.dtd"><svg t="1593001434832" class="icon" viewBox="0 0 1024 1024" version="1.1" xmlns="http://www.w3.org/2000/svg" p-id="1912" xmlns:xlink="http://www.w3.org/1999/xlink" width="200" height="200"><defs><style type="text/css"></style></defs><path d="M512 310.75c-111.03 0-201.36 90.34-201.36 201.37S400.97 713.48 512 713.48c111.04 0 201.37-90.33 201.37-201.36-0.01-111.04-90.34-201.37-201.37-201.37z m0 332.37c-72.24 0-131.01-58.77-131.01-131.01 0-72.24 58.77-131.01 131.01-131.01 72.24 0 131.01 58.77 131.01 131.01 0 72.24-58.77 131.01-131.01 131.01z m484.58-50.14l-65.21-37.65a427.07 427.07 0 0 0 2.2-43.22c0-14.41-0.74-28.89-2.2-43.22l65.21-37.65c24.73-14.28 33.24-46.02 18.96-70.75L895.08 151.84c-14.28-24.73-46.02-33.23-70.75-18.96l-65.21 37.65a420.13 420.13 0 0 0-74.86-43.3V52.01c0-28.56-23.23-51.79-51.8-51.79H391.54c-28.56 0-51.79 23.24-51.79 51.79v75.23a420.834 420.834 0 0 0-74.86 43.3l-65.22-37.65c-24.73-14.28-56.47-5.78-70.75 18.96L8.46 360.49c-14.28 24.73-5.77 56.47 18.96 70.75l65.21 37.65c-1.46 14.33-2.2 28.81-2.2 43.22 0 14.4 0.74 28.89 2.2 43.22l-65.21 37.65C2.69 607.26-5.82 639 8.46 663.74l120.46 208.64c14.28 24.74 46.02 33.24 70.75 18.96l65.22-37.65a421.042 421.042 0 0 0 74.86 43.29v75.23c0 28.56 23.23 51.79 51.79 51.79h240.92c28.56 0 51.8-23.24 51.8-51.79v-75.23a421.395 421.395 0 0 0 74.86-43.29l65.21 37.65c24.74 14.28 56.48 5.78 70.75-18.96l120.46-208.64c14.28-24.74 5.78-56.47-18.96-70.76zM843.43 821.13l-59.74-34.49c-18.26-10.53-40.81-9.05-57.46 3.79-24.67 19.02-51.71 34.67-80.38 46.49-19.41 8.01-31.96 26.79-31.96 47.84v68.89H410.1v-68.89c0-21.05-12.54-39.83-31.95-47.84-28.67-11.83-55.71-27.47-80.38-46.49-16.65-12.84-39.21-14.33-57.46-3.79l-59.74 34.49-101.9-176.5 59.72-34.48c18.21-10.51 28.2-30.75 25.46-51.56a354.898 354.898 0 0 1-3.05-46.48c0-15.53 1.03-31.17 3.05-46.48 2.75-20.81-7.24-41.04-25.46-51.56l-59.72-34.48 101.9-176.5 59.74 34.49c18.25 10.54 40.8 9.05 57.46-3.79 24.67-19.02 51.71-34.66 80.38-46.49 19.41-8.01 31.96-26.79 31.96-47.84V70.58h203.8v68.88c0 21.05 12.54 39.83 31.96 47.84a350.752 350.752 0 0 1 80.38 46.49c16.65 12.83 39.2 14.32 57.45 3.79l59.74-34.49 101.9 176.5-59.72 34.48c-18.22 10.52-28.2 30.76-25.46 51.57 2.03 15.31 3.05 30.94 3.05 46.48 0 15.53-1.02 31.16-3.05 46.48-2.75 20.81 7.24 41.05 25.46 51.56l59.72 34.48-101.91 176.49z" p-id="1913"></path></svg>