<?xml version="1.0" standalone="no"?><!DOCTYPE svg PUBLIC "-//W3C//DTD SVG 1.1//EN" "http://www.w3.org/Graphics/SVG/1.1/DTD/svg11.dtd"><svg t="1593002263642" class="icon" viewBox="0 0 1024 1024" version="1.1" xmlns="http://www.w3.org/2000/svg" p-id="12330" xmlns:xlink="http://www.w3.org/1999/xlink" width="200" height="200"><defs><style type="text/css"></style></defs><path d="M793.35384629 961.86153887c-73.69615371 0-133.99615372-57.84230742-133.99615371-128.52692315 0-59.53846114 42.95769258-109.52307685 100.48846113-123.95769257V94.29615371c0-19.28076943 13.39615372-32.15769258 33.50769258-32.15769257 20.07692315 0 33.47307685 12.87692315 33.47307686 32.15769258v615.08076943c57.53076943 14.43461573 100.48846113 64.41923057 100.48846112 123.95769257 0 70.68461573-60.26538427 128.52692315-133.96153798 128.52692314z m-1e-8-192.80769258c-40.18846113 0-66.98076943 25.71923057-66.98076943 64.28076943 0 38.56153887 26.79230742 64.24615371 66.98076943 64.24615371s66.98076943-25.68461572 66.98076945-64.24615371-26.79230742-64.28076943-66.98076945-64.28076943z m-234.48461571-165.25384629v325.93846114c0 19.28076943-13.39615372 32.12307685-33.5076917 32.12307773-20.07692315 0-33.47307685-12.84230742-33.47307773-32.12307773v-325.93846114c-57.53076943-14.4-100.48846113-64.38461573-100.48846114-123.92307685 0-59.81538427 43.33846114-110.04230742 101.28461573-124.16538428-0.20769258-1.52307685-0.79615372-2.76923057-0.79615459-4.36153887V94.29615371c0-19.28076943 13.39615372-32.15769258 33.47307773-32.15769257 20.11153887 0 33.50769258 12.87692315 33.5076917 32.15769258v257.05384628c0 1.59230742-0.62307685 2.83846113-0.79615372 4.36153887 57.94615371 14.15769258 101.28461572 64.35 101.28461573 124.16538428 0 59.53846114-42.95769258 109.48846113-100.48846201 123.92307685z m-33.5076917-188.16923057c-40.18846113 0-66.98076943 25.68461572-66.98076944 64.24615372s26.79230742 64.24615371 66.98076944 64.2461537 66.98076943-25.68461572 66.98076855-64.2461537-26.79230742-64.24615371-66.98076855-64.24615372zM264.11923057 314.62307685v615.11538428c0 19.28076943-13.43076943 32.12307685-33.5076917 32.12307773-20.11153887 0-33.50769258-12.84230742-33.50769258-32.12307773V314.62307685C139.60769258 300.18846114 96.65 250.20384629 96.65 190.7c0-70.71923057 60.26538427-128.56153887 133.96153886-128.56153886 73.66153887 0 133.99615372 57.84230742 133.99615372 128.56153886 0 59.50384628-42.99230742 109.48846113-100.48846201 123.92307685z m-33.5076917-188.20384628c-40.22307685 0-67.01538428 25.68461572-67.01538515 64.28076943 0 38.56153887 26.79230742 64.24615371 67.01538515 64.24615371 40.18846113 0 66.98076943-25.68461572 66.98076855-64.24615371 0-38.59615371-26.79230742-64.28076943-66.98076855-64.28076943z" p-id="12331"></path></svg>