<?xml version="1.0" standalone="no"?><!DOCTYPE svg PUBLIC "-//W3C//DTD SVG 1.1//EN" "http://www.w3.org/Graphics/SVG/1.1/DTD/svg11.dtd"><svg t="1593001519758" class="icon" viewBox="0 0 1024 1024" version="1.1" xmlns="http://www.w3.org/2000/svg" p-id="2039" xmlns:xlink="http://www.w3.org/1999/xlink" width="200" height="200"><defs><style type="text/css"></style></defs><path d="M340.77 461.23h340.76c33.21 0 60.14-26.92 60.14-60.13V60.32c0-33.21-26.93-60.13-60.14-60.13H340.77c-33.22 0-60.14 26.92-60.14 60.13v340.77c0 33.22 26.93 60.14 60.14 60.14z m0-400.91h340.76v340.77H340.77V60.32z m621.4 501.13H621.41c-33.21 0-60.14 26.93-60.14 60.14v340.76c0 33.22 26.93 60.14 60.14 60.14h340.76c33.22 0 60.14-26.92 60.14-60.14V621.59c0-33.21-26.92-60.14-60.14-60.14z m0 400.91H621.41V621.59h340.76v340.77zM400.91 561.45H60.13c-33.21 0-60.13 26.93-60.13 60.14v340.76c0 33.22 26.92 60.14 60.13 60.14h340.77c33.21 0 60.13-26.92 60.13-60.14V621.59c0.01-33.21-26.91-60.14-60.12-60.14z m0 400.91H60.13V621.59h340.77v340.77z m230.52-801.81c0 20.05-10.02 30.07-30.07 30.07H420.95c-20.05 0-30.07-10.03-30.07-30.07s10.02-30.07 30.07-30.07h180.41c20.05 0 30.07 10.03 30.07 30.07zM110.25 721.82c0-20.05 10.03-30.07 30.07-30.07h180.41c20.05 0 30.07 10.02 30.07 30.07s-10.02 30.07-30.07 30.07H140.32c-20.04 0-30.07-10.02-30.07-30.07z m561.27 0c0-20.05 10.02-30.07 30.07-30.07h180.4c20.05 0 30.07 10.02 30.07 30.07s-10.02 30.07-30.07 30.07H701.59c-20.05 0-30.07-10.02-30.07-30.07z" p-id="2040"></path></svg>